<svg xmlns="http://www.w3.org/2000/svg" width="872" height="168"><path fill="#FFF" fill-rule="evenodd" d="M0 0h872v168H0V0zm0 3.99A3.988 3.988 0 0 1 3.993 0h133.014A3.99 3.99 0 0 1 141 3.99v16.02a3.988 3.988 0 0 1-3.993 3.99H3.993A3.99 3.99 0 0 1 0 20.01V3.99zm0 96A3.998 3.998 0 0 1 4 96h262c2.21 0 4 1.784 4 3.99v16.02a3.998 3.998 0 0 1-4 3.99H4c-2.21 0-4-1.784-4-3.99V99.99zm291 0a3.998 3.998 0 0 1 4.002-3.99h287.996A3.995 3.995 0 0 1 587 99.99v16.02a3.998 3.998 0 0 1-4.002 3.99H295.002a3.995 3.995 0 0 1-4.002-3.99V99.99zm-291-48C0 49.786 1.79 48 3.992 48h179.016A3.99 3.99 0 0 1 187 51.99v16.02c0 2.204-1.79 3.99-3.992 3.99H3.992A3.99 3.99 0 0 1 0 68.01V51.99zm0 96c0-2.204 1.79-3.99 3.992-3.99h179.016a3.99 3.99 0 0 1 3.992 3.99v16.02c0 2.204-1.79 3.99-3.992 3.99H3.992A3.99 3.99 0 0 1 0 164.01v-16.02zm291 0a3.995 3.995 0 0 1 3.998-3.99h314.004a3.993 3.993 0 0 1 3.998 3.99v16.02a3.995 3.995 0 0 1-3.998 3.99H294.998a3.993 3.993 0 0 1-3.998-3.99v-16.02zm0-144A3.998 3.998 0 0 1 295.002 0h287.996A3.995 3.995 0 0 1 587 3.99v16.02a3.998 3.998 0 0 1-4.002 3.99H295.002A3.995 3.995 0 0 1 291 20.01V3.99zm0 48a3.997 3.997 0 0 1 3.998-3.99h254.004A3.992 3.992 0 0 1 553 51.99v16.02a3.997 3.997 0 0 1-3.998 3.99H294.998A3.992 3.992 0 0 1 291 68.01V51.99z"/></svg>